<svg xmlns="http://www.w3.org/2000/svg" xmlns:xlink="http://www.w3.org/1999/xlink" viewBox="0 0 500 500"><defs><style>.c1 {font-size: 24px;}.c1,.c2 {font-family: ArialMT, Arial;isolation: isolate;}.c2 {font-size: 14px;}.c3 {stroke-width: 0.25px;}.c3,.c4 {stroke: #000;stroke-miterlimit: 10;}.c4 {fill: none;stroke-width: 0.5px;}.c5 {fill: #595959;}.c6 {fill: url(#background);}.b1 {fill: #fff;}</style><symbol id="Block" viewBox="0 0 46.188 40"><polygon class="c3" points="34.5688 .125 11.6192 .125 .1443 20 11.6192 39.875 34.5688 39.875 46.0437 20 34.5688 .125"/></symbol><symbol id="Lv1" viewBox="0 0 20.5 20.5"><circle class="c4" cx="10.25" cy="10.25" r="10"/></symbol><symbol id="Lv2" viewBox="0 0 20.5 20.5"><circle class="c4" cx="10.25" cy="10.25" r="10"/><circle class="c4" cx="10.25" cy="10.25" r="4"/></symbol><symbol id="Lv3" viewBox="0 0 21.6349 18.7503"><polygon class="c4" points="10.9588 .5003 .4357 18.5003 21.205 18.5003 10.9588 .5003"/></symbol><symbol id="Lv4" viewBox="0 0 18.5 18.5"><rect class="c4" x=".25" y=".25" width="18" height="18"/></symbol><symbol id="Lv5" viewBox="0 0 18.5 18.5"><rect class="c4" x=".25" y=".25" width="18" height="18"/><circle class="c4" cx="9.25" cy="9.25" r="4"/></symbol><symbol id="Lv6" viewBox="0 0 21.6349 18.7503"><polygon class="c4" points="10.8146 9.0862 7.6146 14.4862 14.0146 14.4862 10.8146 9.0862"/><polygon class="c4" points="10.6761 .5003 .43 18.5003 21.1992 18.5003 10.6761 .5003"/></symbol><symbol id="Lv7" viewBox="0 0 18.5 18.5"><rect class="c4" x=".25" y=".25" width="18" height="18"/><polygon class="c4" points="9.25 6.55 6.05 11.95 12.45 11.95 9.25 6.55"/></symbol><symbol id="Lv8" viewBox="0 0 18.5 18.5"><rect class="c4" x="5.65" y="5.65" width="7.2" height="7.2"/><rect class="c4" x=".25" y=".25" width="18" height="18"/></symbol><symbol id="Lv9" viewBox="0 0 6.3999 5.4"><polygon points="3.3032 0 0 5.4 6.3999 5.4 3.3032 0"/></symbol><symbol id="Lv10" viewBox="0 0 8 8"><circle cx="4" cy="4" r="4"/></symbol><symbol id="Lv11" viewBox="0 0 20.5 20.5"><circle class="c4" cx="10.25" cy="10.25" r="10"/><g><circle cx="10.25" cy="10.25" r="4"/><animate attributeName="opacity" values="1;0;1" dur="3.85s" begin="0s" repeatCount="indefinite"/></g></symbol><symbol id="Lv12" viewBox="0 0 21.6349 18.7503"><polygon points="10.9236 9.3759 7.6204 14.7759 14.0204 14.7759 10.9236 9.3759"/><g><polygon class="c4" points="10.9588 .5003 .4357 18.5003 21.205 18.5003 10.9588 .5003"/><animate attributeName="opacity" values="1;0;1" dur="3.85s" begin="0s" repeatCount="indefinite"/></g></symbol><linearGradient id="background" x1="391.1842" y1="434.6524" x2="107.8509" y2="-56.0954" gradientTransform="translate(0 440.1141) scale(1 -1)" gradientUnits="userSpaceOnUse"><stop offset=".03" stop-color="#7F7F7F" stop-opacity=".6"/><stop offset=".5" stop-color="#7F7F7F"/><stop offset=".96" stop-color="#7F7F7F" stop-opacity=".2"/></linearGradient></defs><g><rect class="c6" width="500" height="500"/><path class="c5" d="M490,10V490H10V10H490m10-10H0V500H500V0h0Z"/><text class="c1" transform="translate(30 46.4014)"><tspan>MOPN PASS</tspan></text><text class="c1" transform="translate(470 46.4014)" text-anchor="end"><tspan>#2613</tspan></text><text class="c2" transform="translate(30 475.4541)"><tspan>$Energy 2103</tspan></text><text class="c2" transform="translate(470 475.4542)" text-anchor="end"><tspan>-139.324.-185</tspan></text></g><g><use width="46.188" height="40" transform="translate(226.906 230)" style="fill:#00A0E9;" xlink:href="#Block"/><use width="18.5" height="18.5" transform="translate(240 241)" xlink:href="#Lv8"/><use width="46.188" height="40" transform="translate(226.906 190)" style="fill:#00A0E9;" xlink:href="#Block"/><use width="18.5" height="18.5" transform="translate(240 201)" xlink:href="#Lv8"/><use width="46.188" height="40" transform="translate(261.547 210)" style="fill:#D63A8F;" xlink:href="#Block"/><use width="18.5" height="18.5" transform="translate(275 221)" xlink:href="#Lv7"/><use width="46.188" height="40" transform="translate(261.547 250)" style="fill:#00A0E9;" xlink:href="#Block"/><use width="21.6349" height="18.7503" transform="translate(273 260)" xlink:href="#Lv6"/><use width="46.188" height="40" transform="translate(226.906 270)" style="fill:#00A0E9;" xlink:href="#Block"/><use width="8" height="8" transform="translate(245 286)" xlink:href="#Lv10"/><use width="46.188" height="40" transform="translate(192.265 250)" style="fill:#00A0E9;" xlink:href="#Block"/><use width="18.5" height="18.5" transform="translate(206 261)" xlink:href="#Lv4"/><use width="46.188" height="40" transform="translate(192.265 210)" style="fill:#00A0E9;" xlink:href="#Block"/><use width="20.5" height="20.5" transform="translate(205 220)" xlink:href="#Lv2"/><use width="46.188" height="40" transform="translate(226.906 150)" style="fill:#00A0E9;" xlink:href="#Block"/><use width="18.5" height="18.5" transform="translate(240 161)" xlink:href="#Lv5"/><use width="46.188" height="40" transform="translate(261.547 170)" style="fill:#D63A8F;" xlink:href="#Block"/><use width="18.5" height="18.5" transform="translate(275 181)" xlink:href="#Lv7"/><use width="46.188" height="40" transform="translate(296.188 190)" style="fill:#D63A8F;" xlink:href="#Block"/><use width="20.5" height="20.5" transform="translate(309 200)" xlink:href="#Lv1"/><use width="46.188" height="40" transform="translate(296.188 230)" style="fill:#D63A8F;" xlink:href="#Block"/><use width="8" height="8" transform="translate(315 246)" xlink:href="#Lv10"/><use width="46.188" height="40" transform="translate(296.188 270)" style="fill:#D63A8F;" xlink:href="#Block"/><use width="18.5" height="18.5" transform="translate(310 281)" xlink:href="#Lv8"/><use width="46.188" height="40" transform="translate(261.547 290)" style="fill:#00A0E9;" xlink:href="#Block"/><use width="18.5" height="18.5" transform="translate(275 301)" xlink:href="#Lv7"/><use width="46.188" height="40" transform="translate(226.906 310)" style="fill:#00A0E9;" xlink:href="#Block"/><use width="21.6349" height="18.7503" transform="translate(238 320)" xlink:href="#Lv6"/><use width="46.188" height="40" transform="translate(192.265 290)" style="fill:#00A0E9;" xlink:href="#Block"/><use width="18.5" height="18.5" transform="translate(206 301)" xlink:href="#Lv8"/><use width="46.188" height="40" transform="translate(157.624 270)" style="fill:#F8B62D;" xlink:href="#Block"/><use width="18.5" height="18.5" transform="translate(171 281)" xlink:href="#Lv7"/><use width="46.188" height="40" transform="translate(157.624 230)" style="fill:#00A0E9;" xlink:href="#Block"/><use width="21.6349" height="18.7503" transform="translate(169 240)" xlink:href="#Lv12"/><use width="46.188" height="40" transform="translate(157.624 190)" style="fill:#00A0E9;" xlink:href="#Block"/><use width="18.5" height="18.5" transform="translate(171 201)" xlink:href="#Lv7"/><use width="46.188" height="40" transform="translate(192.265 170)" style="fill:#00A0E9;" xlink:href="#Block"/><use width="21.6349" height="18.7503" transform="translate(204 180)" xlink:href="#Lv6"/><use width="46.188" height="40" transform="translate(226.906 110)" style="fill:#D63A8F;" xlink:href="#Block"/><use width="21.6349" height="18.7503" transform="translate(238 120)" xlink:href="#Lv12"/><use width="46.188" height="40" transform="translate(261.547 130)" style="fill:#D63A8F;" xlink:href="#Block"/><use width="8" height="8" transform="translate(280 146)" xlink:href="#Lv10"/><use width="46.188" height="40" transform="translate(296.188 150)" style="fill:#D63A8F;" xlink:href="#Block"/><use width="18.5" height="18.5" transform="translate(310 161)" xlink:href="#Lv8"/><use width="46.188" height="40" transform="translate(330.829 170)" style="fill:#D63A8F;" xlink:href="#Block"/><use width="20.5" height="20.5" transform="translate(343 180)" xlink:href="#Lv11"/><use width="46.188" height="40" transform="translate(330.829 210)" style="fill:#D63A8F;" xlink:href="#Block"/><use width="18.5" height="18.5" transform="translate(344 221)" xlink:href="#Lv4"/><use width="46.188" height="40" transform="translate(330.829 250)" style="fill:#D63A8F;" xlink:href="#Block"/><use width="21.6349" height="18.7503" transform="translate(342 260)" xlink:href="#Lv12"/><use width="46.188" height="40" transform="translate(330.829 290)" style="fill:#D63A8F;" xlink:href="#Block"/><use width="21.6349" height="18.7503" transform="translate(342 300)" xlink:href="#Lv12"/><use width="46.188" height="40" transform="translate(296.188 310)" style="fill:#C9DA36;" xlink:href="#Block"/><use width="20.5" height="20.5" transform="translate(309 320)" xlink:href="#Lv11"/><use width="46.188" height="40" transform="translate(261.547 330)" style="fill:#C9DA36;" xlink:href="#Block"/><use width="6.3999" height="5.4" transform="translate(281 348)" xlink:href="#Lv9"/><use width="46.188" height="40" transform="translate(226.906 350)" style="fill:#C9DA36;" xlink:href="#Block"/><use width="21.6349" height="18.7503" transform="translate(238 360)" xlink:href="#Lv3"/><use width="46.188" height="40" transform="translate(192.265 330)" style="fill:#F8B62D;" xlink:href="#Block"/><use width="21.6349" height="18.7503" transform="translate(204 340)" xlink:href="#Lv6"/><use width="46.188" height="40" transform="translate(157.624 310)" style="fill:#F8B62D;" xlink:href="#Block"/><use width="18.5" height="18.5" transform="translate(171 321)" xlink:href="#Lv8"/><use width="46.188" height="40" transform="translate(122.983 290)" style="fill:#F8B62D;" xlink:href="#Block"/><use width="8" height="8" transform="translate(141 306)" xlink:href="#Lv10"/><use width="46.188" height="40" transform="translate(122.983 250)" style="fill:#F8B62D;" xlink:href="#Block"/><use width="20.5" height="20.5" transform="translate(135 260)" xlink:href="#Lv11"/><use width="46.188" height="40" transform="translate(122.983 210)" style="fill:#00A0E9;" xlink:href="#Block"/><use width="20.5" height="20.5" transform="translate(135 220)" xlink:href="#Lv1"/><use width="46.188" height="40" transform="translate(122.983 170)" style="fill:#00A0E9;" xlink:href="#Block"/><use width="21.6349" height="18.7503" transform="translate(134 180)" xlink:href="#Lv12"/><use width="46.188" height="40" transform="translate(157.624 150)" style="fill:#00A0E9;" xlink:href="#Block"/><use width="21.6349" height="18.7503" transform="translate(169 160)" xlink:href="#Lv6"/><use width="46.188" height="40" transform="translate(192.265 130)" style="fill:#00A0E9;" xlink:href="#Block"/><use width="18.5" height="18.5" transform="translate(206 141)" xlink:href="#Lv5"/><use width="46.188" height="40" transform="translate(226.906 70)" style="fill:#D63A8F;" xlink:href="#Block"/><use width="6.3999" height="5.4" transform="translate(246 88)" xlink:href="#Lv9"/><use width="46.188" height="40" transform="translate(261.547 90)" style="fill:#D63A8F;" xlink:href="#Block"/><use width="20.5" height="20.5" transform="translate(274 100)" xlink:href="#Lv11"/><use width="46.188" height="40" transform="translate(296.188 110)" style="fill:#D63A8F;" xlink:href="#Block"/><use width="6.3999" height="5.4" transform="translate(316 128)" xlink:href="#Lv9"/><use width="46.188" height="40" transform="translate(330.829 130)" style="fill:#D63A8F;" xlink:href="#Block"/><use width="8" height="8" transform="translate(349 146)" xlink:href="#Lv10"/><use width="46.188" height="40" transform="translate(365.470 150)" style="fill:#D63A8F;" xlink:href="#Block"/><use width="6.3999" height="5.4" transform="translate(385 168)" xlink:href="#Lv9"/><use width="46.188" height="40" transform="translate(365.470 190)" style="fill:#D63A8F;" xlink:href="#Block"/><use width="18.5" height="18.5" transform="translate(379 201)" xlink:href="#Lv8"/><use width="46.188" height="40" transform="translate(365.470 230)" style="fill:#D63A8F;" xlink:href="#Block"/><use width="21.6349" height="18.7503" transform="translate(377 240)" xlink:href="#Lv3"/><use width="46.188" height="40" transform="translate(365.470 270)" style="fill:#D63A8F;" xlink:href="#Block"/><use width="21.6349" height="18.7503" transform="translate(377 280)" xlink:href="#Lv12"/><use width="46.188" height="40" transform="translate(365.470 310)" style="fill:#D63A8F;" xlink:href="#Block"/><use width="8" height="8" transform="translate(384 326)" xlink:href="#Lv10"/><use width="46.188" height="40" transform="translate(330.829 330)" style="fill:#C9DA36;" xlink:href="#Block"/><use width="18.5" height="18.5" transform="translate(344 341)" xlink:href="#Lv5"/><use width="46.188" height="40" transform="translate(296.188 350)" style="fill:#C9DA36;" xlink:href="#Block"/><use width="21.6349" height="18.7503" transform="translate(308 360)" xlink:href="#Lv12"/><use width="46.188" height="40" transform="translate(261.547 370)" style="fill:#C9DA36;" xlink:href="#Block"/><use width="8" height="8" transform="translate(280 386)" xlink:href="#Lv10"/><use width="46.188" height="40" transform="translate(226.906 390)" style="fill:#C9DA36;" xlink:href="#Block"/><use width="20.5" height="20.5" transform="translate(239 400)" xlink:href="#Lv11"/><use width="46.188" height="40" transform="translate(192.265 370)" style="fill:#F8B62D;" xlink:href="#Block"/><use width="21.6349" height="18.7503" transform="translate(204 380)" xlink:href="#Lv6"/><use width="46.188" height="40" transform="translate(157.624 350)" style="fill:#F8B62D;" xlink:href="#Block"/><use width="21.6349" height="18.7503" transform="translate(169 360)" xlink:href="#Lv6"/><use width="46.188" height="40" transform="translate(122.983 330)" style="fill:#F8B62D;" xlink:href="#Block"/><use width="18.5" height="18.5" transform="translate(136 341)" xlink:href="#Lv5"/><use width="46.188" height="40" transform="translate(88.342 310)" style="fill:#F8B62D;" xlink:href="#Block"/><use width="20.5" height="20.5" transform="translate(101 320)" xlink:href="#Lv11"/><use width="46.188" height="40" transform="translate(88.342 270)" style="fill:#F8B62D;" xlink:href="#Block"/><use width="21.6349" height="18.7503" transform="translate(100 280)" xlink:href="#Lv12"/><use width="46.188" height="40" transform="translate(88.342 230)" style="fill:#F8B62D;" xlink:href="#Block"/><use width="8" height="8" transform="translate(107 246)" xlink:href="#Lv10"/><use width="46.188" height="40" transform="translate(88.342 190)" style="fill:#00A0E9;" xlink:href="#Block"/><use width="18.5" height="18.5" transform="translate(102 201)" xlink:href="#Lv7"/><use width="46.188" height="40" transform="translate(88.342 150)" style="fill:#00A0E9;" xlink:href="#Block"/><use width=")" xlink:href="#Lv0"/><use width="46.188" height="40" transform="translate(122.983 130)" style="fill:#00A0E9;" xlink:href="#Block"/><use width="18.5" height="18.5" transform="translate(136 141)" xlink:href="#Lv4"/><use width="46.188" height="40" transform="translate(157.624 110)" style="fill:#00A0E9;" xlink:href="#Block"/><use width="18.5" height="18.5" transform="translate(171 121)" xlink:href="#Lv4"/><use width="46.188" height="40" transform="translate(192.265 90)" style="fill:#D63A8F;" xlink:href="#Block"/><use width="6.3999" height="5.4" transform="translate(212 108)" xlink:href="#Lv9"/><use width="46.188" height="40" transform="translate(226.906 30)" style="fill:#D63A8F;" xlink:href="#Block"/><use width="18.5" height="18.5" transform="translate(240 41)" xlink:href="#Lv5"/><use width="46.188" height="40" transform="translate(261.547 50)" style="fill:#D63A8F;" xlink:href="#Block"/><use width="20.5" height="20.5" transform="translate(274 60)" xlink:href="#Lv11"/><use width="46.188" height="40" transform="translate(296.188 70)" style="fill:#D63A8F;" xlink:href="#Block"/><use width="21.6349" height="18.7503" transform="translate(308 80)" xlink:href="#Lv12"/><use width="46.188" height="40" transform="translate(330.829 90)" style="fill:#D63A8F;" xlink:href="#Block"/><use width="21.6349" height="18.7503" transform="translate(342 100)" xlink:href="#Lv12"/><use width="46.188" height="40" transform="translate(365.470 110)" style="fill:#D63A8F;" xlink:href="#Block"/><use width="18.5" height="18.5" transform="translate(379 121)" xlink:href="#Lv8"/><use width="46.188" height="40" transform="translate(400.111 130)" style="fill:#D63A8F;" xlink:href="#Block"/><use width="21.6349" height="18.7503" transform="translate(412 140)" xlink:href="#Lv12"/><use width="46.188" height="40" transform="translate(400.111 170)" style="fill:#D63A8F;" xlink:href="#Block"/><use width="18.5" height="18.5" transform="translate(414 181)" xlink:href="#Lv5"/><use width="46.188" height="40" transform="translate(400.111 210)" style="fill:#D63A8F;" xlink:href="#Block"/><use width="18.5" height="18.5" transform="translate(414 221)" xlink:href="#Lv8"/><use width="46.188" height="40" transform="translate(400.111 250)" style="fill:#D63A8F;" xlink:href="#Block"/><use width="21.6349" height="18.7503" transform="translate(412 260)" xlink:href="#Lv12"/><use width="46.188" height="40" transform="translate(400.111 290)" style="fill:#D63A8F;" xlink:href="#Block"/><use width="20.5" height="20.5" transform="translate(413 300)" xlink:href="#Lv11"/><use width="46.188" height="40" transform="translate(400.111 330)" style="fill:#C9DA36;" xlink:href="#Block"/><use width="6.3999" height="5.4" transform="translate(420 348)" xlink:href="#Lv9"/><use width="46.188" height="40" transform="translate(365.470 350)" style="fill:#C9DA36;" xlink:href="#Block"/><use width="21.6349" height="18.7503" transform="translate(377 360)" xlink:href="#Lv3"/><use width="46.188" height="40" transform="translate(330.829 370)" style="fill:#C9DA36;" xlink:href="#Block"/><use width="18.5" height="18.5" transform="translate(344 381)" xlink:href="#Lv4"/><use width="46.188" height="40" transform="translate(296.188 390)" style="fill:#C9DA36;" xlink:href="#Block"/><use width="18.5" height="18.5" transform="translate(310 401)" xlink:href="#Lv7"/><use width="46.188" height="40" transform="translate(261.547 410)" style="fill:#C9DA36;" xlink:href="#Block"/><use width="20.5" height="20.5" transform="translate(274 420)" xlink:href="#Lv11"/><use width="46.188" height="40" transform="translate(226.906 430)" style="fill:#C9DA36;" xlink:href="#Block"/><use width="6.3999" height="5.4" transform="translate(246 448)" xlink:href="#Lv9"/><use width="46.188" height="40" transform="translate(192.265 410)" style="fill:#C9DA36;" xlink:href="#Block"/><use width="6.3999" height="5.4" transform="translate(212 428)" xlink:href="#Lv9"/><use width="46.188" height="40" transform="translate(157.624 390)" style="fill:#F8B62D;" xlink:href="#Block"/><use width="20.5" height="20.5" transform="translate(170 400)" xlink:href="#Lv11"/><use width="46.188" height="40" transform="translate(122.983 370)" style="fill:#F8B62D;" xlink:href="#Block"/><use width="20.5" height="20.5" transform="translate(135 380)" xlink:href="#Lv2"/><use width="46.188" height="40" transform="translate(88.342 350)" style="fill:#F8B62D;" xlink:href="#Block"/><use width="6.3999" height="5.4" transform="translate(108 368)" xlink:href="#Lv9"/><use width="46.188" height="40" transform="translate(53.701 330)" style="fill:#F8B62D;" xlink:href="#Block"/><use width="8" height="8" transform="translate(72 346)" xlink:href="#Lv10"/><use width="46.188" height="40" transform="translate(53.701 290)" style="fill:#F8B62D;" xlink:href="#Block"/><use width="20.5" height="20.5" transform="translate(66 300)" xlink:href="#Lv11"/><use width="46.188" height="40" transform="translate(53.701 250)" style="fill:#F8B62D;" xlink:href="#Block"/><use width="6.3999" height="5.4" transform="translate(73 268)" xlink:href="#Lv9"/><use width="46.188" height="40" transform="translate(53.701 210)" style="fill:#00A0E9;" xlink:href="#Block"/><use width="8" height="8" transform="translate(72 226)" xlink:href="#Lv10"/><use width="46.188" height="40" transform="translate(53.701 170)" style="fill:#00A0E9;" xlink:href="#Block"/><use width="20.5" height="20.5" transform="translate(66 180)" xlink:href="#Lv2"/><use width="46.188" height="40" transform="translate(53.701 130)" style="fill:#00A0E9;" xlink:href="#Block"/><use width="20.5" height="20.5" transform="translate(66 140)" xlink:href="#Lv11"/><use width="46.188" height="40" transform="translate(88.342 110)" style="fill:#00A0E9;" xlink:href="#Block"/><use width="21.6349" height="18.7503" transform="translate(100 120)" xlink:href="#Lv12"/><use width="46.188" height="40" transform="translate(122.983 90)" style="fill:#00A0E9;" xlink:href="#Block"/><use width="8" height="8" transform="translate(141 106)" xlink:href="#Lv10"/><use width="46.188" height="40" transform="translate(157.624 70)" style="fill:#D63A8F;" xlink:href="#Block"/><use width="18.5" height="18.5" transform="translate(171 81)" xlink:href="#Lv7"/><use width="46.188" height="40" transform="translate(192.265 50)" style="fill:#D63A8F;" xlink:href="#Block"/><use width="21.6349" height="18.7503" transform="translate(204 60)" xlink:href="#Lv3"/></g></svg>