<?xml version="1.0" encoding="UTF-8"?><svg xmlns="http://www.w3.org/2000/svg" xmlns:xlink="http://www.w3.org/1999/xlink" viewBox="0 0 500 500"><defs><style>.c1 {font-size: 24px;}.c1,.c2 {font-family: ArialMT, Arial;isolation: isolate;}.c2 {font-size: 14px;}.c3 {stroke-width: 0.25px;}.c3,.c4 {stroke: #000;stroke-miterlimit: 10;}.c4 {fill: none;stroke-width: 0.5px;}.c5 {fill: #F2F2F2;}.c6 {fill: url(#background);}.b1 {fill: #fff;}</style><symbol id="Block" viewBox="0 0 46.188 40"><polygon class="c3" points="34.5688 .125 11.6192 .125 .1443 20 11.6192 39.875 34.5688 39.875 46.0437 20 34.5688 .125"/></symbol><symbol id="Lv1" viewBox="0 0 20.5 20.5"><circle class="c4" cx="10.25" cy="10.25" r="10"/></symbol><symbol id="Lv2" viewBox="0 0 20.5 20.5"><circle class="c4" cx="10.25" cy="10.25" r="10"/><circle class="c4" cx="10.25" cy="10.25" r="4"/></symbol><symbol id="Lv3" viewBox="0 0 21.6349 18.7503"><polygon class="c4" points="10.9588 .5003 .4357 18.5003 21.205 18.5003 10.9588 .5003" /></symbol><symbol id="Lv4" viewBox="0 0 18.5 18.5"><rect class="c4" x=".25" y=".25" width="18" height="18" /></symbol><symbol id="Lv5" viewBox="0 0 18.5 18.5"><rect class="c4" x=".25" y=".25" width="18" height="18" /><circle class="c4" cx="9.25" cy="9.25" r="4" /></symbol><symbol id="Lv6" viewBox="0 0 21.6349 18.7503"><polygon class="c4" points="10.8146 9.0862 7.6146 14.4862 14.0146 14.4862 10.8146 9.0862" /><polygon class="c4" points="10.6761 .5003 .43 18.5003 21.1992 18.5003 10.6761 .5003" /></symbol><symbol id="Lv7" viewBox="0 0 18.5 18.5"><rect class="c4" x=".25" y=".25" width="18" height="18" /><polygon class="c4" points="9.25 6.55 6.05 11.95 12.45 11.95 9.25 6.55" /></symbol><symbol id="Lv8" viewBox="0 0 18.5 18.5"><rect class="c4" x="5.65" y="5.65" width="7.2" height="7.2" /><rect class="c4" x=".25" y=".25" width="18" height="18" /></symbol><symbol id="Lv9" viewBox="0 0 6.3999 5.4"><polygon points="3.3032 0 0 5.4 6.3999 5.4 3.3032 0" /></symbol><symbol id="Lv10" viewBox="0 0 8 8"><circle cx="4" cy="4" r="4" /></symbol><symbol id="Lv11" viewBox="0 0 20.5 20.5"><circle class="c4" cx="10.25" cy="10.25" r="10"/><g><circle cx="10.25" cy="10.25" r="4" /><animate attributeName="opacity" values="1;0;1" dur="3.85s" begin="0s" repeatCount="indefinite"/></g></symbol><symbol id="Lv12" viewBox="0 0 21.6349 18.7503"><g><polygon points="10.9236 9.3759 7.6204 14.7759 14.0204 14.7759 10.9236 9.3759" /><animate attributeName="opacity" values="1;0;1" dur="3.85s" begin="0s" repeatCount="indefinite"/></g><polygon class="c4" points="10.9588 .5003 .4357 18.5003 21.205 18.5003 10.9588 .5003" /></symbol><linearGradient id="background" x1="391.1842" y1="434.6524" x2="107.8509" y2="-56.0954" gradientTransform="translate(0 440.1141) scale(1 -1)" gradientUnits="userSpaceOnUse"><stop offset=".03" stop-color="#B7C4CF" stop-opacity=".6" /><stop offset=".5" stop-color="#B7C4CF" /><stop offset=".96" stop-color="#B7C4CF" stop-opacity=".2" /></linearGradient></defs><g><rect class="c6" width="500" height="500" /><path class="c5" d="M490,10V490H10V10H490m10-10H0V500H500V0h0Z" /><text class="c1" transform="translate(30 46.4014)"><tspan>MOPN PASS</tspan></text><text class="c1" transform="translate(470 46.4014)" text-anchor="end"><tspan>#4782</tspan></text><text class="c2" transform="translate(30 475.4541)"><tspan>$ Energy 0</tspan></text><text class="c2" transform="translate(470 475.4542)" text-anchor="end"><tspan>320,-340,20</tspan></text></g><g><use width="46.188" height="40" transform="translate(226.906 230)" class="b1" xlink:href="#Block"/><use width="21.6349" height="18.7503" transform="translate(238 240)" xlink:href="#Lv12" /><use width="46.188" height="40" transform="translate(226.906 190)" class="b1" xlink:href="#Block"/><use width="18.5" height="18.5" transform="translate(240 201)" xlink:href="#Lv4" /><use width="46.188" height="40" transform="translate(261.547 210)" class="b1" xlink:href="#Block"/><use width="6.3999" height="5.4" transform="translate(281 228)" xlink:href="#Lv9" /><use width="46.188" height="40" transform="translate(261.547 250)" class="b1" xlink:href="#Block"/><use width="20.5" height="20.5" transform="translate(274 260)" xlink:href="#Lv11" /><use width="46.188" height="40" transform="translate(226.906 270)" class="b1" xlink:href="#Block"/><use width="21.6349" height="18.7503" transform="translate(238 280)" xlink:href="#Lv12" /><use width="46.188" height="40" transform="translate(192.265 250)" class="b1" xlink:href="#Block"/><use width="20.5" height="20.5" transform="translate(205 260)" xlink:href="#Lv11" /><use width="46.188" height="40" transform="translate(192.265 210)" class="b1" xlink:href="#Block"/><use width="8" height="8" transform="translate(211 226)" xlink:href="#Lv10" /><use width="46.188" height="40" transform="translate(226.906 150)" class="b1" xlink:href="#Block"/><use width="6.3999" height="5.4" transform="translate(246 168)" xlink:href="#Lv9" /><use width="46.188" height="40" transform="translate(261.547 170)" class="b1" xlink:href="#Block"/><use width="20.5" height="20.5" transform="translate(274 180)" xlink:href="#Lv2" /><use width="46.188" height="40" transform="translate(296.188 190)" class="b1" xlink:href="#Block"/><use width="21.6349" height="18.7503" transform="translate(308 200)" xlink:href="#Lv3" /><use width="46.188" height="40" transform="translate(296.188 230)" class="b1" xlink:href="#Block"/><use width="18.5" height="18.5" transform="translate(310 241)" xlink:href="#Lv5" /><use width="46.188" height="40" transform="translate(296.188 270)" class="b1" xlink:href="#Block"/><use width="21.6349" height="18.7503" transform="translate(308 280)" xlink:href="#Lv12" /><use width="46.188" height="40" transform="translate(261.547 290)" class="b1" xlink:href="#Block"/><use width="18.5" height="18.5" transform="translate(275 301)" xlink:href="#Lv4" /><use width="46.188" height="40" transform="translate(226.906 310)" class="b1" xlink:href="#Block"/><use width="18.5" height="18.5" transform="translate(240 321)" xlink:href="#Lv5" /><use width="46.188" height="40" transform="translate(192.265 290)" class="b1" xlink:href="#Block"/><use width="8" height="8" transform="translate(211 306)" xlink:href="#Lv10" /><use width="46.188" height="40" transform="translate(157.624 270)" class="b1" xlink:href="#Block"/><use width="21.6349" height="18.7503" transform="translate(169 280)" xlink:href="#Lv12" /><use width="46.188" height="40" transform="translate(157.624 230)" class="b1" xlink:href="#Block"/><use width="20.5" height="20.5" transform="translate(170 240)" xlink:href="#Lv11" /><use width="46.188" height="40" transform="translate(157.624 190)" class="b1" xlink:href="#Block"/><use width="20.5" height="20.5" transform="translate(170 200)" xlink:href="#Lv11" /><use width="46.188" height="40" transform="translate(192.265 170)" class="b1" xlink:href="#Block"/><use width="6.3999" height="5.4" transform="translate(212 188)" xlink:href="#Lv9" /><use width="46.188" height="40" transform="translate(226.906 110)" class="b1" xlink:href="#Block"/><use width="6.3999" height="5.4" transform="translate(246 128)" xlink:href="#Lv9" /><use width="46.188" height="40" transform="translate(261.547 130)" class="b1" xlink:href="#Block"/><use width="18.5" height="18.5" transform="translate(275 141)" xlink:href="#Lv5" /><use width="46.188" height="40" transform="translate(296.188 150)" class="b1" xlink:href="#Block"/><use width=")" xlink:href="#Lv0" /><use width="46.188" height="40" transform="translate(330.829 170)" class="b1" xlink:href="#Block"/><use width="18.5" height="18.5" transform="translate(344 181)" xlink:href="#Lv8" /><use width="46.188" height="40" transform="translate(330.829 210)" class="b1" xlink:href="#Block"/><use width="21.6349" height="18.7503" transform="translate(342 220)" xlink:href="#Lv12" /><use width="46.188" height="40" transform="translate(330.829 250)" class="b1" xlink:href="#Block"/><use width="18.5" height="18.5" transform="translate(344 261)" xlink:href="#Lv4" /><use width="46.188" height="40" transform="translate(330.829 290)" class="b1" xlink:href="#Block"/><use width="21.6349" height="18.7503" transform="translate(342 300)" xlink:href="#Lv12" /><use width="46.188" height="40" transform="translate(296.188 310)" class="b1" xlink:href="#Block"/><use width="21.6349" height="18.7503" transform="translate(308 320)" xlink:href="#Lv12" /><use width="46.188" height="40" transform="translate(261.547 330)" class="b1" xlink:href="#Block"/><use width="20.5" height="20.5" transform="translate(274 340)" xlink:href="#Lv11" /><use width="46.188" height="40" transform="translate(226.906 350)" class="b1" xlink:href="#Block"/><use width="21.6349" height="18.7503" transform="translate(238 360)" xlink:href="#Lv6" /><use width="46.188" height="40" transform="translate(192.265 330)" class="b1" xlink:href="#Block"/><use width="20.5" height="20.5" transform="translate(205 340)" xlink:href="#Lv11" /><use width="46.188" height="40" transform="translate(157.624 310)" class="b1" xlink:href="#Block"/><use width="6.3999" height="5.4" transform="translate(177 328)" xlink:href="#Lv9" /><use width="46.188" height="40" transform="translate(122.983 290)" class="b1" xlink:href="#Block"/><use width="18.5" height="18.5" transform="translate(136 301)" xlink:href="#Lv7" /><use width="46.188" height="40" transform="translate(122.983 250)" class="b1" xlink:href="#Block"/><use width="8" height="8" transform="translate(141 266)" xlink:href="#Lv10" /><use width="46.188" height="40" transform="translate(122.983 210)" class="b1" xlink:href="#Block"/><use width="18.5" height="18.5" transform="translate(136 221)" xlink:href="#Lv5" /><use width="46.188" height="40" transform="translate(122.983 170)" class="b1" xlink:href="#Block"/><use width="6.3999" height="5.4" transform="translate(142 188)" xlink:href="#Lv9" /><use width="46.188" height="40" transform="translate(157.624 150)" class="b1" xlink:href="#Block"/><use width="21.6349" height="18.7503" transform="translate(169 160)" xlink:href="#Lv12" /><use width="46.188" height="40" transform="translate(192.265 130)" class="b1" xlink:href="#Block"/><use width="20.5" height="20.5" transform="translate(205 140)" xlink:href="#Lv11" /><use width="46.188" height="40" transform="translate(226.906 70)" class="b1" xlink:href="#Block"/><use width="21.6349" height="18.7503" transform="translate(238 80)" xlink:href="#Lv12" /><use width="46.188" height="40" transform="translate(261.547 90)" class="b1" xlink:href="#Block"/><use width="21.6349" height="18.7503" transform="translate(273 100)" xlink:href="#Lv6" /><use width="46.188" height="40" transform="translate(296.188 110)" class="b1" xlink:href="#Block"/><use width="18.5" height="18.5" transform="translate(310 121)" xlink:href="#Lv8" /><use width="46.188" height="40" transform="translate(330.829 130)" class="b1" xlink:href="#Block"/><use width="20.5" height="20.5" transform="translate(343 140)" xlink:href="#Lv11" /><use width="46.188" height="40" transform="translate(365.470 150)" class="b1" xlink:href="#Block"/><use width="21.6349" height="18.7503" transform="translate(377 160)" xlink:href="#Lv3" /><use width="46.188" height="40" transform="translate(365.470 190)" class="b1" xlink:href="#Block"/><use width="20.5" height="20.5" transform="translate(378 200)" xlink:href="#Lv11" /><use width="46.188" height="40" transform="translate(365.470 230)" class="b1" xlink:href="#Block"/><use width="8" height="8" transform="translate(384 246)" xlink:href="#Lv10" /><use width="46.188" height="40" transform="translate(365.470 270)" class="b1" xlink:href="#Block"/><use width="6.3999" height="5.4" transform="translate(385 288)" xlink:href="#Lv9" /><use width="46.188" height="40" transform="translate(365.470 310)" class="b1" xlink:href="#Block"/><use width="18.5" height="18.5" transform="translate(379 321)" xlink:href="#Lv8" /><use width="46.188" height="40" transform="translate(330.829 330)" class="b1" xlink:href="#Block"/><use width="18.5" height="18.5" transform="translate(344 341)" xlink:href="#Lv8" /><use width="46.188" height="40" transform="translate(296.188 350)" class="b1" xlink:href="#Block"/><use width="18.5" height="18.5" transform="translate(310 361)" xlink:href="#Lv5" /><use width="46.188" height="40" transform="translate(261.547 370)" class="b1" xlink:href="#Block"/><use width="21.6349" height="18.7503" transform="translate(273 380)" xlink:href="#Lv3" /><use width="46.188" height="40" transform="translate(226.906 390)" class="b1" xlink:href="#Block"/><use width="8" height="8" transform="translate(245 406)" xlink:href="#Lv10" /><use width="46.188" height="40" transform="translate(192.265 370)" class="b1" xlink:href="#Block"/><use width="21.6349" height="18.7503" transform="translate(204 380)" xlink:href="#Lv12" /><use width="46.188" height="40" transform="translate(157.624 350)" class="b1" xlink:href="#Block"/><use width="18.5" height="18.5" transform="translate(171 361)" xlink:href="#Lv7" /><use width="46.188" height="40" transform="translate(122.983 330)" class="b1" xlink:href="#Block"/><use width="21.6349" height="18.7503" transform="translate(134 340)" xlink:href="#Lv12" /><use width="46.188" height="40" transform="translate(88.342 310)" class="b1" xlink:href="#Block"/><use width="21.6349" height="18.7503" transform="translate(100 320)" xlink:href="#Lv6" /><use width="46.188" height="40" transform="translate(88.342 270)" class="b1" xlink:href="#Block"/><use width="18.5" height="18.5" transform="translate(102 281)" xlink:href="#Lv8" /><use width="46.188" height="40" transform="translate(88.342 230)" class="b1" xlink:href="#Block"/><use width="20.5" height="20.5" transform="translate(101 240)" xlink:href="#Lv11" /><use width="46.188" height="40" transform="translate(88.342 190)" class="b1" xlink:href="#Block"/><use width="21.6349" height="18.7503" transform="translate(100 200)" xlink:href="#Lv12" /><use width="46.188" height="40" transform="translate(88.342 150)" class="b1" xlink:href="#Block"/><use width="8" height="8" transform="translate(107 166)" xlink:href="#Lv10" /><use width="46.188" height="40" transform="translate(122.983 130)" class="b1" xlink:href="#Block"/><use width="21.6349" height="18.7503" transform="translate(134 140)" xlink:href="#Lv6" /><use width="46.188" height="40" transform="translate(157.624 110)" class="b1" xlink:href="#Block"/><use width="6.3999" height="5.4" transform="translate(177 128)" xlink:href="#Lv9" /><use width="46.188" height="40" transform="translate(192.265 90)" class="b1" xlink:href="#Block"/><use width="6.3999" height="5.4" transform="translate(212 108)" xlink:href="#Lv9" /><use width="46.188" height="40" transform="translate(226.906 30)" class="b1" xlink:href="#Block"/><use width="21.6349" height="18.7503" transform="translate(238 40)" xlink:href="#Lv6" /><use width="46.188" height="40" transform="translate(261.547 50)" class="b1" xlink:href="#Block"/><use width="18.5" height="18.5" transform="translate(275 61)" xlink:href="#Lv7" /><use width="46.188" height="40" transform="translate(296.188 70)" class="b1" xlink:href="#Block"/><use width="18.5" height="18.5" transform="translate(310 81)" xlink:href="#Lv7" /><use width="46.188" height="40" transform="translate(330.829 90)" class="b1" xlink:href="#Block"/><use width="18.5" height="18.5" transform="translate(344 101)" xlink:href="#Lv4" /><use width="46.188" height="40" transform="translate(365.470 110)" class="b1" xlink:href="#Block"/><use width="20.5" height="20.5" transform="translate(378 120)" xlink:href="#Lv2" /><use width="46.188" height="40" transform="translate(400.111 130)" class="b1" xlink:href="#Block"/><use width="20.5" height="20.5" transform="translate(413 140)" xlink:href="#Lv11" /><use width="46.188" height="40" transform="translate(400.111 170)" class="b1" xlink:href="#Block"/><use width="18.5" height="18.5" transform="translate(414 181)" xlink:href="#Lv7" /><use width="46.188" height="40" transform="translate(400.111 210)" class="b1" xlink:href="#Block"/><use width="18.5" height="18.5" transform="translate(414 221)" xlink:href="#Lv8" /><use width="46.188" height="40" transform="translate(400.111 250)" class="b1" xlink:href="#Block"/><use width="8" height="8" transform="translate(419 266)" xlink:href="#Lv10" /><use width="46.188" height="40" transform="translate(400.111 290)" class="b1" xlink:href="#Block"/><use width="20.5" height="20.5" transform="translate(413 300)" xlink:href="#Lv1" /><use width="46.188" height="40" transform="translate(400.111 330)" class="b1" xlink:href="#Block"/><use width="21.6349" height="18.7503" transform="translate(412 340)" xlink:href="#Lv6" /><use width="46.188" height="40" transform="translate(365.470 350)" class="b1" xlink:href="#Block"/><use width="18.5" height="18.5" transform="translate(379 361)" xlink:href="#Lv7" /><use width="46.188" height="40" transform="translate(330.829 370)" class="b1" xlink:href="#Block"/><use width="18.5" height="18.5" transform="translate(344 381)" xlink:href="#Lv8" /><use width="46.188" height="40" transform="translate(296.188 390)" class="b1" xlink:href="#Block"/><use width="18.5" height="18.5" transform="translate(310 401)" xlink:href="#Lv8" /><use width="46.188" height="40" transform="translate(261.547 410)" class="b1" xlink:href="#Block"/><use width="18.5" height="18.5" transform="translate(275 421)" xlink:href="#Lv5" /><use width="46.188" height="40" transform="translate(226.906 430)" class="b1" xlink:href="#Block"/><use width="20.5" height="20.5" transform="translate(239 440)" xlink:href="#Lv1" /><use width="46.188" height="40" transform="translate(192.265 410)" class="b1" xlink:href="#Block"/><use width="8" height="8" transform="translate(211 426)" xlink:href="#Lv10" /><use width="46.188" height="40" transform="translate(157.624 390)" class="b1" xlink:href="#Block"/><use width="18.5" height="18.5" transform="translate(171 401)" xlink:href="#Lv4" /><use width="46.188" height="40" transform="translate(122.983 370)" class="b1" xlink:href="#Block"/><use width="8" height="8" transform="translate(141 386)" xlink:href="#Lv10" /><use width="46.188" height="40" transform="translate(88.342 350)" class="b1" xlink:href="#Block"/><use width="21.6349" height="18.7503" transform="translate(100 360)" xlink:href="#Lv3" /><use width="46.188" height="40" transform="translate(53.701 330)" class="b1" xlink:href="#Block"/><use width="6.3999" height="5.4" transform="translate(73 348)" xlink:href="#Lv9" /><use width="46.188" height="40" transform="translate(53.701 290)" class="b1" xlink:href="#Block"/><use width="8" height="8" transform="translate(72 306)" xlink:href="#Lv10" /><use width="46.188" height="40" transform="translate(53.701 250)" class="b1" xlink:href="#Block"/><use width="20.5" height="20.5" transform="translate(66 260)" xlink:href="#Lv11" /><use width="46.188" height="40" transform="translate(53.701 210)" class="b1" xlink:href="#Block"/><use width="21.6349" height="18.7503" transform="translate(65 220)" xlink:href="#Lv12" /><use width="46.188" height="40" transform="translate(53.701 170)" class="b1" xlink:href="#Block"/><use width="21.6349" height="18.7503" transform="translate(65 180)" xlink:href="#Lv6" /><use width="46.188" height="40" transform="translate(53.701 130)" class="b1" xlink:href="#Block"/><use width="18.5" height="18.5" transform="translate(67 141)" xlink:href="#Lv8" /><use width="46.188" height="40" transform="translate(88.342 110)" class="b1" xlink:href="#Block"/><use width="18.5" height="18.5" transform="translate(102 121)" xlink:href="#Lv7" /><use width="46.188" height="40" transform="translate(122.983 90)" class="b1" xlink:href="#Block"/><use width="8" height="8" transform="translate(141 106)" xlink:href="#Lv10" /><use width="46.188" height="40" transform="translate(157.624 70)" class="b1" xlink:href="#Block"/><use width="20.5" height="20.5" transform="translate(170 80)" xlink:href="#Lv2" /><use width="46.188" height="40" transform="translate(192.265 50)" class="b1" xlink:href="#Block"/><use width="18.5" height="18.5" transform="translate(206 61)" xlink:href="#Lv7" /></g></svg>